<svg xmlns="http://www.w3.org/2000/svg" fill="none" viewBox="0 0 113 35" class="cursor-pointer w-32" data-fc-idx="0"><g filter="url(#a)" style="fill: none !important;"><path fill="#6938ef" d="M52.521 29.669c-.675.035-1.335.047-1.957.034a10.4 10.4 0 0 1-2.024-.229 6.3 6.3 0 0 1-2-.8 4.5 4.5 0 0 1-.547-.403q-.341.331-.729.598a6.5 6.5 0 0 1-2.19.955c-.676.161-1.427.262-2.293.307l-6.9.363a3.2 3.2 0 0 1-1.608-.32 4.1 4.1 0 0 1-1.787.499l-2.818.148c-.885.046-1.643-.14-2.252-.555q-.18-.121-.335-.265a3.6 3.6 0 0 1-.786.571 4.5 4.5 0 0 1-1.939.529l-2.804.147a3.4 3.4 0 0 1-1.74-.358 4 4 0 0 1-1.817.544l-2.802.147c-.958.05-1.823-.255-2.445-.85a4 4 0 0 1-2.568 1.115l-2.82.149c-1.161.06-2.18-.4-2.798-1.267-.334-.47-.828-1.471-.388-2.912l1.848-6.048a7.6 7.6 0 0 1 1.325-2.52 8.2 8.2 0 0 1 2.085-1.842c.76-.47 1.623-.845 2.566-1.114a13 13 0 0 1 2.888-.469l1.064-.056q.041-.264.13-.553l1.847-6.047a7.5 7.5 0 0 1 1.326-2.52 8.2 8.2 0 0 1 2.084-1.841c.76-.47 1.623-.846 2.566-1.114a13 13 0 0 1 2.888-.47l1.993-.104c1.048-.056 2 .01 2.83.193.986.219 1.82.604 2.482 1.146l.02.016q.096-.083.198-.163c.627-.494 1.38-.903 2.241-1.213.84-.302 1.816-.485 2.902-.542l4.533-.238c1.147-.061 2.087.038 2.871.302.717.24 1.316.59 1.787 1.042a8 8 0 0 1 .478-.318 10.2 10.2 0 0 1 2.566-1.114 13 13 0 0 1 2.888-.469l1.993-.104c1.048-.056 2 .01 2.83.193.986.219 1.82.604 2.482 1.146a4.42 4.42 0 0 1 1.526 2.507c.19.885.128 1.853-.186 2.882l-1.63 5.337c.82.168 1.547.469 2.17.9.191.133.398.299.603.503q.245-.233.515-.448c.627-.494 1.38-.903 2.242-1.213.84-.302 1.816-.485 2.902-.542l4.532-.238c1.147-.061 2.088.038 2.872.302q.645.216 1.16.55.305-.273.665-.487a5.1 5.1 0 0 1 1.682-.61c.463-.085.984-.142 1.6-.174.614-.032 1.146-.03 1.58.013.695.068 1.29.279 1.774.626a6.4 6.4 0 0 1 1.815-.64 12 12 0 0 1 1.608-.199l6.619-.348a3.5 3.5 0 0 1 1.492.237 3.8 3.8 0 0 1 1.498-.395l10.56-.556c1.281-.068 2.38.532 2.94 1.605.426.819.478 1.764.158 2.814l-.321 1.047c-.258.845-.695 1.557-1.302 2.117-.698.645-1.548 1.012-2.457 1.06l-1.028.054-1.359 4.449a4 4 0 0 1-1.353 1.996 4 4 0 0 1-2.289.847l-2.819.148c-1.544.08-2.385-.702-2.75-1.176a3 3 0 0 1-.458-.864 5.8 5.8 0 0 1-1.31 1.252c-.638.44-1.375.76-2.19.955-.676.161-1.427.262-2.293.307l-6.9.363a3.24 3.24 0 0 1-1.423-.236 4.6 4.6 0 0 1-1.682.399l-2.802.147q-1.002.053-1.774-.29a3.66 3.66 0 0 1-1.61.467l-2.803.147c-1.005.053-1.907-.286-2.534-.937q-.16.162-.337.307a4 4 0 0 1-2.331.905l-2.819.148c-1.032.054-1.953-.347-2.557-1.08a8 8 0 0 1-.443.268 9.9 9.9 0 0 1-3.16 1.12c-.949.163-1.945.275-2.957.328" style="fill: rgb(105, 56, 239) !important;"/><g filter="url(#b)" style="fill: none !important;"><path fill="#fff" d="M29.357 15.211a1.8 1.8 0 0 1-.599.907q-.429.35-.973.379l-2.802.147q-.545.028-.778-.288-.232-.315-.064-.872l.32-1.048q.079-.255-.017-.398-.094-.144-.343-.13l-1.62.085a.58.58 0 0 0-.38.168.94.94 0 0 0-.241.411l-.321 1.049a1.8 1.8 0 0 1-.599.906q-.429.35-.973.38l-2.818.148q-.544.028-.77-.288-.224-.315-.056-.872l1.847-6.052a5.2 5.2 0 0 1 .915-1.745 5.8 5.8 0 0 1 1.489-1.313 7.8 7.8 0 0 1 1.977-.855q1.108-.316 2.369-.383l1.992-.105q1.262-.067 2.201.142.94.207 1.503.67t.723 1.197q.16.735-.136 1.704l-1.847 6.052zm-6.319-4.496q-.073.238-.001.383.07.145.288.132l1.62-.084a.72.72 0 0 0 .435-.171.83.83 0 0 0 .26-.397l.175-.571q.208-.683-.036-.936-.244-.251-.79-.224l-.202.01a1.8 1.8 0 0 0-.954.316q-.41.288-.619.97zm34.1 3.031a1.8 1.8 0 0 1-.599.907q-.428.35-.973.38l-2.802.146q-.545.028-.778-.287-.232-.317-.064-.873l.32-1.048q.078-.255-.017-.398-.093-.143-.343-.13l-1.62.085a.58.58 0 0 0-.38.168.94.94 0 0 0-.241.411l-.32 1.049a1.8 1.8 0 0 1-.6.906q-.428.351-.973.38l-2.817.148q-.544.028-.771-.287-.224-.316-.056-.873l1.847-6.052a5.2 5.2 0 0 1 .915-1.745 5.8 5.8 0 0 1 1.489-1.313 7.8 7.8 0 0 1 1.977-.855q1.108-.315 2.369-.383l1.993-.105q1.26-.066 2.2.142.941.209 1.503.67.563.464.723 1.198t-.136 1.703l-1.847 6.052zM50.819 9.25q-.073.239-.001.383.07.145.288.133l1.62-.085a.72.72 0 0 0 .435-.171.83.83 0 0 0 .26-.396l.175-.572q.209-.682-.036-.936-.244-.252-.79-.224l-.202.011a1.8 1.8 0 0 0-.954.315q-.41.29-.619.97zm-15.48 5.646a1.8 1.8 0 0 1-.598.906q-.429.35-.973.38l-2.818.148q-.545.027-.734-.407-.188-.435.044-1.198l1.866-6.116q.208-.684.602-1.322a4.4 4.4 0 0 1 1.04-1.15q.645-.51 1.583-.849.94-.338 2.23-.407l4.532-.239q1.26-.064 2.005.183.743.25 1.085.71.343.458.346 1.076t-.205 1.3l-1.866 6.116q-.233.762-.698 1.233-.465.47-1.01.498l-2.802.148q-.545.028-.779-.288-.233-.315-.063-.872l1.526-5.004q.161-.525.169-.852.008-.33-.097-.51a.5.5 0 0 0-.327-.234 1.8 1.8 0 0 0-.502-.036l-.219.012q-.296.016-.548.091t-.482.276a2.1 2.1 0 0 0-.425.538q-.196.338-.355.863l-1.526 5.004zM17.455 27.822a1.8 1.8 0 0 1-.599.907q-.429.35-.973.379l-2.802.147q-.545.028-.778-.288-.232-.314-.064-.872l.32-1.048q.079-.255-.017-.398-.093-.144-.343-.13l-1.62.085a.58.58 0 0 0-.38.168.94.94 0 0 0-.241.411l-.32 1.049a1.8 1.8 0 0 1-.6.906q-.428.351-.973.38l-2.818.148q-.544.028-.77-.288-.224-.314-.056-.872l1.847-6.052a5.2 5.2 0 0 1 .915-1.745 5.8 5.8 0 0 1 1.489-1.313 7.8 7.8 0 0 1 1.977-.855q1.108-.316 2.369-.383l1.992-.105q1.262-.066 2.201.142t1.503.67q.563.464.723 1.198t-.136 1.703l-1.847 6.052zm-6.319-4.496q-.073.238-.001.383.07.145.288.133l1.62-.085a.72.72 0 0 0 .435-.171.83.83 0 0 0 .26-.397l.175-.57q.209-.684-.036-.937-.244-.252-.79-.224l-.202.01a1.8 1.8 0 0 0-.954.316q-.41.29-.619.97zm15.743 3.5q.112-.366-.136-.556t-.902-.155l-.965.05a1.25 1.25 0 0 0-.504.12q-.209.106-.256.265l-.441 1.446q-.098.318-.493.534a2.2 2.2 0 0 1-.94.245l-2.803.147q-.53.029-.763-.287t-.064-.873l2.647-8.672q.156-.51.544-.88.39-.372.873-.398l8.532-.45q1.012-.052 1.71.043.699.095 1.082.42t.439.922q.053.599-.236 1.553-.255.843-.557 1.373-.3.531-.637.831a1.9 1.9 0 0 1-.709.412q-.372.114-.761.134-.872.046-1.2.165a.68.68 0 0 0-.434.468c-.072.232-.019.397.165.46q.279.095 1.166.047.794-.042 1.101.255.308.296.076 1.059l-.538 1.763q-.141.461-.552.755a1.75 1.75 0 0 1-.956.324l-2.818.148q-.546.028-.812-.152-.266-.181-.17-.499l.31-1.016zm.567-4.469q.17-.01.337-.025a.8.8 0 0 0 .313-.094.9.9 0 0 0 .273-.242q.127-.162.213-.449.091-.3.056-.456a.33.33 0 0 0-.149-.219.5.5 0 0 0-.263-.065q-.153 0-.294.008l-1.339.07q-.358.02-.601.165a.76.76 0 0 0-.336.448l-.097.318q-.092.303.057.465.15.164.507.146zm11.094 2.4q.515-.026.858-.053.344-.025.567-.076a.76.76 0 0 0 .337-.151.6.6 0 0 0 .174-.29q.058-.192.012-.291t-.222-.129a2.6 2.6 0 0 0-.483-.02q-.309.006-.792.034l-2.18.115q-.933.05-1.463-.15-.53-.198-.738-.618-.21-.419-.143-1.063.066-.645.323-1.486.363-1.191.923-1.892.558-.701 1.213-1.089.653-.386 1.345-.517.69-.13 1.298-.161l6.617-.349q.544-.028.77.288.224.316.056.872l-.223.73a1.8 1.8 0 0 1-.598.907q-.429.35-.973.379l-4.189.221a6 6 0 0 0-.88.093q-.27.061-.363.363-.112.365.201.397.312.03 1.045-.008l1.495-.078q1.261-.067 2.02.104t1.115.59.343 1.084-.287 1.571q-.325 1.065-.75 1.76a3.7 3.7 0 0 1-1.028 1.109 4.1 4.1 0 0 1-1.403.605 10.6 10.6 0 0 1-1.875.248l-6.897.363q-.483.027-.669-.293-.186-.318-.017-.874l.233-.762a2 2 0 0 1 .544-.904q.375-.348.826-.373l3.862-.204zm22.86-6.566q-.203-1.115-.97-1.645-.764-.53-1.962-.623a20 20 0 0 0-2.583-.02q-.933.05-1.826.159-.89.11-1.73.349a8.4 8.4 0 0 0-1.608.646 6 6 0 0 0-1.429 1.069q-.662.66-1.212 1.61t-.948 2.254-.418 2.225q-.022.924.251 1.534t.814.95q.54.337 1.257.495a8 8 0 0 0 1.57.175q.854.017 1.787-.032a23 23 0 0 0 2.68-.298 7.5 7.5 0 0 0 2.413-.854q1.119-.63 2.02-1.803.903-1.173 1.498-3.126.597-1.954.392-3.07zm-8.74 8.055c.11-1.144-.14-2.146-.683-2.907-.541-.763-1.378-1.286-2.436-1.475 1.209-.308 2.398-.939 3.43-1.783 1.034-.846 1.913-1.905 2.51-3.075-.111 1.145.14 2.146.683 2.907s1.379 1.285 2.437 1.474c-2.42.617-4.747 2.518-5.94 4.86m13.241-.978a1.8 1.8 0 0 1-.599.906q-.428.351-.973.38l-2.818.148q-.544.028-.733-.407t.044-1.198l1.865-6.116q.21-.683.603-1.322.393-.638 1.04-1.149.645-.51 1.583-.85.939-.338 2.23-.407l4.531-.238q1.26-.066 2.005.183.743.25 1.086.709t.345 1.076q.003.619-.205 1.3L74.038 24.4q-.232.76-.697 1.232-.465.47-1.01.499l-2.803.147q-.545.028-.778-.288-.232-.315-.064-.872l1.527-5.004q.16-.524.168-.852.008-.33-.097-.51a.5.5 0 0 0-.327-.234 1.8 1.8 0 0 0-.501-.036l-.219.012q-.296.016-.548.092-.253.075-.482.276a2.1 2.1 0 0 0-.425.538q-.196.338-.355.863L65.9 25.266zm10.39-5.065q.168-.556.598-.907.429-.35.973-.379l2.802-.147q.545-.028.778.288.232.315.063.872l-1.556 5.1q-.097.316-.492.534a2.2 2.2 0 0 1-.94.245l-2.803.147q-.546.028-.811-.153-.267-.18-.17-.5l1.556-5.099zm3.2-1.904q-.78.042-1.26-.011-.483-.054-.72-.25a.72.72 0 0 1-.255-.55q-.016-.35.159-.922a3.5 3.5 0 0 1 .413-.928 1.9 1.9 0 0 1 .613-.58 2.8 2.8 0 0 1 .91-.322q.535-.097 1.299-.139a8.4 8.4 0 0 1 1.231.006q.47.046.686.237t.22.535q.002.345-.172.916a4.2 4.2 0 0 1-.394.935q-.217.364-.564.592-.346.23-.868.336-.524.105-1.3.147zm6.908 3.935q.515-.028.858-.053.345-.026.567-.077a.76.76 0 0 0 .338-.151.6.6 0 0 0 .173-.29q.059-.192.012-.29-.046-.1-.221-.13a2.6 2.6 0 0 0-.483-.02q-.31.008-.792.034l-2.18.115q-.933.05-1.463-.15-.53-.198-.739-.617-.21-.42-.143-1.064.066-.644.323-1.485.364-1.191.923-1.893.558-.701 1.213-1.088.655-.386 1.345-.518.691-.13 1.298-.161l6.617-.349q.545-.028.77.288t.056.872l-.222.73a1.8 1.8 0 0 1-.599.907q-.429.35-.973.38l-4.188.22a6 6 0 0 0-.88.093q-.27.061-.364.364-.112.364.201.396.312.03 1.045-.008l1.495-.078q1.262-.067 2.021.104.76.17 1.115.59.354.419.343 1.085t-.288 1.57q-.326 1.065-.75 1.76A3.7 3.7 0 0 1 91.8 24.43a4.1 4.1 0 0 1-1.402.606q-.801.19-1.875.247l-6.898.364q-.482.025-.669-.293-.186-.318-.017-.875l.233-.762a2 2 0 0 1 .545-.904q.373-.348.826-.373l3.861-.204zm10.349 2.306q-.225-.293-.07-.8l1.696-5.56q.097-.318.017-.384a.3.3 0 0 0-.204-.06l-2.336.123q-.544.028-.759-.35-.214-.38-.009-1.048l.32-1.048q.203-.668.644-1.082.44-.414.985-.443l10.557-.557q.543-.027.742.352.199.38-.005 1.047l-.32 1.048a2.4 2.4 0 0 1-.652 1.082q-.449.414-.993.443l-2.336.123a.5.5 0 0 0-.247.084q-.123.076-.22.394l-1.696 5.56q-.16.525-.565.841-.403.32-.964.348l-2.817.148q-.546.028-.77-.263z" style="fill: rgb(255, 255, 255) !important;"/></g></g><defs style="fill: none !important;"><filter id="a" width="112.788" height="36" x="0" y="-1" color-interpolation-filters="sRGB" filterUnits="userSpaceOnUse" style="fill: none !important;"><feFlood flood-opacity="0" result="BackgroundImageFix" style="fill: none !important;"/><feColorMatrix in="SourceAlpha" result="hardAlpha" values="0 0 0 0 0 0 0 0 0 0 0 0 0 0 0 0 0 0 127 0" style="fill: none !important;"/><feOffset dy="1" style="fill: none !important;"/><feGaussianBlur stdDeviation="1" style="fill: none !important;"/><feColorMatrix values="0 0 0 0 0.0627451 0 0 0 0 0.0941176 0 0 0 0 0.156863 0 0 0 0.02 0" style="fill: none !important;"/><feBlend in2="BackgroundImageFix" result="effect1_dropShadow_10323_53586" style="fill: none !important;"/><feColorMatrix in="SourceAlpha" result="hardAlpha" values="0 0 0 0 0 0 0 0 0 0 0 0 0 0 0 0 0 0 127 0" style="fill: none !important;"/><feOffset dy="1" style="fill: none !important;"/><feGaussianBlur stdDeviation="1" style="fill: none !important;"/><feColorMatrix values="0 0 0 0 0.0840493 0 0 0 0 0.0394488 0 0 0 0 0.262451 0 0 0 0.02 0" style="fill: none !important;"/><feBlend in2="effect1_dropShadow_10323_53586" result="effect2_dropShadow_10323_53586" style="fill: none !important;"/><feBlend in="SourceGraphic" in2="effect2_dropShadow_10323_53586" result="shape" style="fill: none !important;"/></filter><filter id="b" width="104.08" height="25.707" x="4.348" y="3.961" color-interpolation-filters="sRGB" filterUnits="userSpaceOnUse" style="fill: none !important;"><feFlood flood-opacity="0" result="BackgroundImageFix" style="fill: none !important;"/><feBlend in="SourceGraphic" in2="BackgroundImageFix" result="shape" style="fill: none !important;"/><feColorMatrix in="SourceAlpha" result="hardAlpha" values="0 0 0 0 0 0 0 0 0 0 0 0 0 0 0 0 0 0 127 0" style="fill: none !important;"/><feOffset dx=".25" dy="1" style="fill: none !important;"/><feComposite in2="hardAlpha" k2="-1" k3="1" operator="arithmetic" style="fill: none !important;"/><feColorMatrix values="0 0 0 0 0.234807 0 0 0 0 0.0519172 0 0 0 0 0.755339 0 0 0 0.04 0" style="fill: none !important;"/><feBlend in2="shape" result="effect1_innerShadow_10323_53586" style="fill: none !important;"/></filter></defs></svg>